<svg width="205" height="48" viewBox="0 0 205 48" fill="none" xmlns="http://www.w3.org/2000/svg">
<g filter="url(#filter0_d)">
<g clip-path="url(#clip0)">
<path d="M13.3388 14.7234L8.0722 19.99L13.3388 25.2566L18.6054 19.99L13.3388 14.7234Z" fill="#D7B399"/>
<path d="M23.9944 4.08548L18.7278 9.35205L23.9944 14.6186L29.2609 9.35205L23.9944 4.08548Z" fill="#D7B399"/>
<path d="M23.9914 25.3938L18.7248 30.6604L23.9914 35.927L29.2579 30.6604L23.9914 25.3938Z" fill="#D7B399"/>
<path d="M34.647 14.7266L29.3804 19.9932L34.647 25.2597L39.9136 19.9932L34.647 14.7266Z" fill="#D7B399"/>
<path d="M32.6102 12.6867L27.3436 17.9532L29.3828 19.9924L34.6493 14.7258L32.6102 12.6867Z" fill="#D7B399"/>
<path d="M21.9547 23.3533L16.6881 28.6199L18.7273 30.659L23.9938 25.3924L21.9547 23.3533Z" fill="#D7B399"/>
<path d="M29.2587 9.35305L23.9921 14.6196L26.0313 16.6588L31.2978 11.3922L29.2587 9.35305Z" fill="#D7B399"/>
<path d="M18.6177 20.0053L13.3511 25.2719L15.3903 27.311L20.6569 22.0444L18.6177 20.0053Z" fill="#D7B399"/>
<path d="M15.3787 12.6864L13.3396 14.7256L18.6062 19.9922L20.6453 17.953L15.3787 12.6864Z" fill="#D7B399"/>
<path d="M18.727 9.34953L16.6879 11.3887L21.9544 16.6552L23.9936 14.6161L18.727 9.34953Z" fill="#D7B399"/>
<path d="M29.3796 19.9905L27.3405 22.0297L32.607 27.2962L34.6462 25.2571L29.3796 19.9905Z" fill="#D7B399"/>
<path d="M26.046 23.3421L24.0068 25.3812L29.2734 30.6478L31.3126 28.6087L26.046 23.3421Z" fill="#D7B399"/>
<path d="M31.3029 32.6971L29.2697 30.6639L24 35.9336L18.7303 30.6639L16.6971 32.6971L24 40L31.3029 32.6971Z" fill="#D7B399"/>
<path d="M13.3361 14.7303L11.3029 12.6971L4 20L11.3029 27.303L13.3361 25.2698L8.06639 20L13.3361 14.7303Z" fill="#D7B399"/>
<path d="M36.6971 12.6971L34.6639 14.7303L39.9336 20L34.6639 25.2698L36.6971 27.303L44 20L36.6971 12.6971Z" fill="#D7B399"/>
<path d="M29.2697 9.3361L31.3029 7.3029L24 0L16.6971 7.3029L18.7303 9.3361L24 4.06639L29.2697 9.3361Z" fill="#D7B399"/>
</g>
<path d="M69.472 15.368H64.096V12.2H78.736V15.368H73.36V29H69.472V15.368ZM97.4359 12.2V29H93.5479V22.112H85.9159V29H82.0279V12.2H85.9159V18.824H93.5479V12.2H97.4359ZM115.619 25.88V29H102.611V12.2H115.307V15.32H106.475V18.968H114.275V21.992H106.475V25.88H115.619ZM127.909 12.2H131.797V25.832H140.221V29H127.909V12.2ZM151.448 29.288C149.704 29.288 148.128 28.912 146.72 28.16C145.328 27.408 144.232 26.376 143.432 25.064C142.648 23.736 142.256 22.248 142.256 20.6C142.256 18.952 142.648 17.472 143.432 16.16C144.232 14.832 145.328 13.792 146.72 13.04C148.128 12.288 149.704 11.912 151.448 11.912C153.192 11.912 154.76 12.288 156.152 13.04C157.544 13.792 158.64 14.832 159.44 16.16C160.24 17.472 160.64 18.952 160.64 20.6C160.64 22.248 160.24 23.736 159.44 25.064C158.64 26.376 157.544 27.408 156.152 28.16C154.76 28.912 153.192 29.288 151.448 29.288ZM151.448 25.976C152.44 25.976 153.336 25.752 154.136 25.304C154.936 24.84 155.56 24.2 156.008 23.384C156.472 22.568 156.704 21.64 156.704 20.6C156.704 19.56 156.472 18.632 156.008 17.816C155.56 17 154.936 16.368 154.136 15.92C153.336 15.456 152.44 15.224 151.448 15.224C150.456 15.224 149.56 15.456 148.76 15.92C147.96 16.368 147.328 17 146.864 17.816C146.416 18.632 146.192 19.56 146.192 20.6C146.192 21.64 146.416 22.568 146.864 23.384C147.328 24.2 147.96 24.84 148.76 25.304C149.56 25.752 150.456 25.976 151.448 25.976ZM172.898 29.288C171.154 29.288 169.578 28.912 168.17 28.16C166.778 27.408 165.682 26.376 164.882 25.064C164.098 23.736 163.706 22.248 163.706 20.6C163.706 18.952 164.098 17.472 164.882 16.16C165.682 14.832 166.778 13.792 168.17 13.04C169.578 12.288 171.154 11.912 172.898 11.912C174.642 11.912 176.21 12.288 177.602 13.04C178.994 13.792 180.09 14.832 180.89 16.16C181.69 17.472 182.09 18.952 182.09 20.6C182.09 22.248 181.69 23.736 180.89 25.064C180.09 26.376 178.994 27.408 177.602 28.16C176.21 28.912 174.642 29.288 172.898 29.288ZM172.898 25.976C173.89 25.976 174.786 25.752 175.586 25.304C176.386 24.84 177.01 24.2 177.458 23.384C177.922 22.568 178.154 21.64 178.154 20.6C178.154 19.56 177.922 18.632 177.458 17.816C177.01 17 176.386 16.368 175.586 15.92C174.786 15.456 173.89 15.224 172.898 15.224C171.906 15.224 171.01 15.456 170.21 15.92C169.41 16.368 168.778 17 168.314 17.816C167.866 18.632 167.642 19.56 167.642 20.6C167.642 21.64 167.866 22.568 168.314 23.384C168.778 24.2 169.41 24.84 170.21 25.304C171.01 25.752 171.906 25.976 172.898 25.976ZM193.484 12.2C194.972 12.2 196.26 12.448 197.348 12.944C198.452 13.44 199.3 14.144 199.892 15.056C200.484 15.968 200.78 17.048 200.78 18.296C200.78 19.528 200.484 20.608 199.892 21.536C199.3 22.448 198.452 23.152 197.348 23.648C196.26 24.128 194.972 24.368 193.484 24.368H190.1V29H186.212V12.2H193.484ZM193.268 21.2C194.436 21.2 195.324 20.952 195.932 20.456C196.54 19.944 196.844 19.224 196.844 18.296C196.844 17.352 196.54 16.632 195.932 16.136C195.324 15.624 194.436 15.368 193.268 15.368H190.1V21.2H193.268Z" fill="white"/>
</g>
<defs>
<filter id="filter0_d" x="0" y="0" width="204.78" height="48" filterUnits="userSpaceOnUse" color-interpolation-filters="sRGB">
<feFlood flood-opacity="0" result="BackgroundImageFix"/>
<feColorMatrix in="SourceAlpha" type="matrix" values="0 0 0 0 0 0 0 0 0 0 0 0 0 0 0 0 0 0 127 0"/>
<feOffset dy="4"/>
<feGaussianBlur stdDeviation="2"/>
<feColorMatrix type="matrix" values="0 0 0 0 0 0 0 0 0 0 0 0 0 0 0 0 0 0 0.25 0"/>
<feBlend mode="normal" in2="BackgroundImageFix" result="effect1_dropShadow"/>
<feBlend mode="normal" in="SourceGraphic" in2="effect1_dropShadow" result="shape"/>
</filter>
<clipPath id="clip0">
<rect width="40" height="40" fill="white" transform="translate(4)"/>
</clipPath>
</defs>
</svg>
